<?xml version="1.0" standalone="no"?>
<!DOCTYPE svg PUBLIC "-//W3C//DTD SVG 20010904//EN"
 "http://www.w3.org/TR/2001/REC-SVG-20010904/DTD/svg10.dtd">
<svg version="1.0" xmlns="http://www.w3.org/2000/svg"
 width="236.000000pt" height="236.000000pt" viewBox="0 0 236.000000 236.000000"
 preserveAspectRatio="xMidYMid meet">
<metadata>
Created by potrace 1.14, written by Peter Selinger 2001-2017
</metadata>
<g transform="translate(0.000000,236.000000) scale(0.100000,-0.100000)"
fill="#000000" stroke="none">
<path d="M1107 2354 c-1 -1 -31 -4 -67 -8 -270 -25 -555 -178 -748 -400 -362
-417 -386 -1032 -56 -1472 182 -245 444 -408 739 -459 108 -19 332 -19 423 0
442 92 782 398 911 819 21 69 25 86 41 181 11 69 5 319 -9 380 -7 28 -14 59
-17 69 -10 51 -50 159 -86 231 -62 123 -125 211 -223 310 -187 188 -425 308
-680 341 -46 6 -223 12 -228 8z"/>
</g>
</svg>
